<svg xmlns="http://www.w3.org/2000/svg" viewBox="0 0 128 128" role="img" aria-label="Zauchka logo">
  <defs>
    <linearGradient id="g" x1="18" y1="12" x2="110" y2="118" gradientUnits="userSpaceOnUse">
      <stop stop-color="#22A7F0"/>
      <stop offset="0.55" stop-color="#5865F2"/>
      <stop offset="1" stop-color="#FF7A1A"/>
    </linearGradient>
    <filter id="s" x="-20%" y="-20%" width="140%" height="140%">
      <feDropShadow dx="0" dy="10" stdDeviation="8" flood-color="#0f172a" flood-opacity=".22"/>
    </filter>
  </defs>
  <rect x="10" y="10" width="108" height="108" rx="32" fill="url(#g)" filter="url(#s)"/>
  <path d="M36 37h57c3.1 0 4.8 3.6 2.8 6L55.7 90H93c2 0 3.7 1.7 3.7 3.8v.4c0 2.1-1.7 3.8-3.7 3.8H35c-3.2 0-4.9-3.7-2.8-6.1L72.6 45H36c-2.1 0-3.8-1.7-3.8-3.8v-.4c0-2.1 1.7-3.8 3.8-3.8Z" fill="white"/>
  <circle cx="92" cy="36" r="9" fill="#fff" opacity=".88"/>
  <circle cx="98" cy="30" r="3" fill="#fff" opacity=".72"/>
</svg>
