<svg width="2600" height="2600" viewBox="0 0 2600 2600" fill="none" xmlns="http://www.w3.org/2000/svg">
<g clip-path="url(#clip0_144_19)">
<path d="M759.165 2539.17L759.058 2539.13L758.951 2539.08C704.865 2516.33 660.074 2481.15 623.606 2434.39C530.07 2314.41 436.126 2194.79 342.11 2075.08C300.396 2021.97 258.667 1968.84 216.953 1915.65L216.917 1915.6L216.882 1915.56C198.963 1892.86 181.037 1869.96 163.056 1846.98L163.044 1846.97C145.12 1824.06 127.141 1801.09 109.154 1778.31C55.082 1708.35 30.022 1630.58 35.8182 1542.84L35.8188 1542.83L35.8194 1542.82C37.817 1512.32 44.7114 1481.61 52.1841 1448.33C52.8551 1445.34 53.5307 1442.33 54.2079 1439.3C112.526 1183.2 170.045 927.906 226.766 673.43C251.685 562.329 312.919 483.483 412.48 434.661C536.326 374.081 659.967 313.301 783.572 252.538L783.587 252.531C907.19 191.769 1030.76 131.026 1154.52 70.4873C1251.88 23.171 1348.42 23.1709 1445.78 70.4872C1506.46 100.168 1567.18 129.844 1627.91 159.53C1815.08 251.012 2002.43 342.581 2189.33 434.62L2189.37 434.635L2189.4 434.65C2287.41 482.678 2348.61 561.54 2372.73 670.138L2372.74 670.199L2372.75 670.26C2434.19 942.287 2494.83 1214.32 2555.49 1486.41L2555.64 1487.08C2555.64 1487.08 2555.64 1487.08 2555.64 1487.09C2579.06 1593.59 2558.74 1689.37 2492.69 1774.31L2492.69 1774.31C2320.22 1996.16 2146.95 2217.19 1972.88 2437.41C1906.08 2521.65 1818.69 2563.24 1712.49 2563.98L1712.4 2563.99L1712.32 2563.99C1609.56 2565.2 1506.88 2565.05 1403.59 2564.9C1369.05 2564.85 1334.45 2564.8 1299.75 2564.8H1298.95H1298.14H1297.34H1296.53H1295.73H1294.92H1294.12H1293.31H1292.51H1291.7H1290.9H1290.09H1289.29H1288.48H1287.68H1286.87H1286.06H1285.26H1284.45H1283.65H1282.84H1282.04H1281.23H1280.43H1279.62H1278.82H1278.01H1277.21H1276.4H1275.6H1274.79H1273.99H1273.18H1272.38H1271.57H1270.77H1269.96H1269.16H1268.35H1267.55H1266.74H1265.94H1265.13H1264.33H1263.52H1262.72H1261.91H1261.11H1260.3H1259.5H1258.69H1257.89H1257.08H1256.28H1255.47H1254.67H1253.86H1253.06H1252.25H1251.45H1250.64H1249.84H1249.03H1248.23H1247.42H1246.62H1245.81H1245.01H1244.2H1243.4H1242.59H1241.79H1240.98H1240.18H1239.37H1238.57H1237.76H1236.96H1236.15H1235.35H1234.54H1233.74H1232.93H1232.13H1231.32H1230.52H1229.71H1228.91H1228.1H1227.3H1226.49H1225.69H1224.88H1224.08H1223.27H1222.47H1221.66H1220.86H1220.05H1219.25H1218.44H1217.64H1216.83H1216.03H1215.22H1214.42H1213.61H1212.81H1212H1211.2H1210.39H1209.59H1208.78H1207.98H1207.17H1206.37H1205.56H1204.76H1203.95H1203.15H1202.34H1201.54H1200.73H1199.93H1199.12H1198.31H1197.51H1196.7H1195.9H1195.09H1194.29H1193.48H1192.68H1191.87H1191.07H1190.26H1189.46H1188.65H1187.85H1187.04H1186.24H1185.43H1184.63H1183.82H1183.02H1182.21H1181.41H1180.6H1179.8H1178.99H1178.19H1177.38H1176.58H1175.77H1174.97H1174.16H1173.36H1172.55H1171.75H1170.94H1170.14H1169.33H1168.53H1167.72H1166.92H1166.11H1165.31H1164.5H1163.7H1162.89H1162.09H1161.28H1160.48H1159.67H1158.87H1158.06H1157.26H1156.45H1155.65H1154.84H1154.04H1153.23H1152.43H1151.62H1150.82H1150.01H1149.21H1148.4H1147.6H1146.79H1145.99H1145.18H1144.38H1143.57H1142.77H1141.96H1141.16H1140.35H1139.55H1138.74H1137.94H1137.13H1136.33H1135.52H1134.72H1133.91H1133.11H1132.3H1131.5H1130.69H1129.89H1129.08H1128.28H1127.47H1126.67H1125.86H1125.06H1124.25H1123.45H1122.64H1121.84H1121.03H1120.23H1119.42H1118.62H1117.81H1117.01H1116.2H1115.4H1114.59H1113.79H1112.98H1112.18H1111.37H1110.57H1109.76H1108.95H1108.15H1107.34H1106.54H1105.73H1104.93H1104.12H1103.32H1102.51H1101.71H1100.9H1100.1H1099.29H1098.49H1097.68H1096.88H1096.07H1095.27H1094.46H1093.66H1092.85H1092.05H1091.24H1090.44H1089.63H1088.83H1088.02H1087.22H1086.41H1085.61H1084.8H1084H1083.19H1082.39H1081.58H1080.78H1079.97H1079.17H1078.36H1077.56H1076.75H1075.95H1075.14H1074.34H1073.53H1072.73H1071.92H1071.12H1070.31H1069.51H1068.7H1067.9H1067.09H1066.29H1065.48H1064.68H1063.87H1063.07H1062.26H1061.46H1060.65H1059.85H1059.04H1058.24H1057.43H1056.63H1055.82H1055.02H1054.21H1053.41H1052.6H1051.8H1050.99H1050.19H1049.38H1048.58H1047.77H1046.97H1046.16H1045.36H1044.55H1043.75H1042.94H1042.14H1041.33H1040.53H1039.72H1038.92H1038.11H1037.31H1036.5H1035.7H1034.89H1034.09H1033.28H1032.48H1031.67H1030.87H1030.06H1029.26H1028.45H1027.65H1026.84H1026.04H1025.23H1024.43H1023.62H1022.82H1022.01H1021.2H1020.4H1019.59H1018.79H1017.98H1017.18H1016.37H1015.57H1014.76H1013.96H1013.15H1012.35H1011.54H1010.74H1009.93H1009.13H1008.32H1007.52H1006.71H1005.91H1005.1H1004.3H1003.49H1002.69H1001.88H1001.08H1000.27H999.469H998.664H997.859H997.054H996.249H995.443H994.638H993.833H993.028H992.223H991.418H990.613H989.808H989.003H988.198H987.393H986.588H985.783H984.978H984.173H983.368H982.563H981.758H980.953H980.148H979.343H978.538H977.732H976.927H976.122H975.317H974.512H973.707H972.902H972.097H971.292H970.487H969.682H968.877H968.072H967.267H966.462H965.657H964.852H964.047H963.242H962.437H961.632H960.827H960.021H959.216H958.411H957.606H956.801H955.996H955.191H954.386H953.581H952.776H951.971H951.166H950.361H949.556H948.751H947.946H947.141H946.336H945.531H944.726H943.921H943.116H942.31H941.505H940.7H939.895H939.09H938.285H937.48H936.675H935.87H935.065H934.26H933.455H932.65H931.845H931.04H930.235H929.43H928.625H927.82H927.015H926.21H925.405H924.599H923.794H922.989H922.184H921.379H920.574H919.769H918.964H918.159H917.354H916.549H915.744H914.939H914.134H913.329H912.524H911.719H910.914H910.109H909.304H908.499H907.694H906.888H906.083H905.278H904.473H903.668H902.863H902.058H901.253H900.448H899.643H898.838H898.033H897.228H896.423H895.618H894.813H894.008H893.203H892.398H891.593H890.788H889.983H889.177H888.372H887.567C843.181 2564.8 799.989 2556.67 759.165 2539.17Z" fill="white" stroke="#372579" stroke-width="70"/>
<circle cx="1300.5" cy="1360.5" r="897.5" fill="#372579"/>
<path d="M691.87 1182H602.305C594.627 1182 587.905 1184.62 582.577 1189.95L582.577 1189.95C577.455 1195.07 575.068 1201.7 575.068 1209.24C575.068 1216.78 577.452 1223.45 582.423 1228.8L582.574 1228.97L582.737 1229.12C588.09 1234.09 594.76 1236.47 602.305 1236.47H691.87V1510.53C691.87 1518.54 694.668 1525.55 700.263 1531.14C705.859 1536.74 712.861 1539.54 720.876 1539.54C728.89 1539.54 735.893 1536.74 741.488 1531.14C747.084 1525.55 749.882 1518.54 749.882 1510.53V1236.47H839.004C846.544 1236.47 853.167 1234.09 858.289 1228.96C863.618 1223.64 866.241 1216.91 866.241 1209.24C866.241 1201.63 863.662 1195.02 858.292 1189.95C853.222 1184.58 846.607 1182 839.004 1182H749.882H743.882H697.87H691.87ZM1178.24 1192.54L1178.19 1192.6L1178.14 1192.66L976.464 1444.76V1211.01C976.464 1202.98 973.996 1195.96 968.663 1190.55C963.515 1184.7 956.486 1182 948.343 1182C940.369 1182 933.322 1184.77 927.501 1190.19C921.417 1195.55 918.452 1202.69 918.452 1211.01V1510.53C918.452 1518.67 921.493 1525.71 927.427 1531.28C933.262 1536.75 940.335 1539.54 948.343 1539.54C952.525 1539.54 956.612 1538.58 960.559 1536.79L958.076 1531.32L960.559 1536.79C964.475 1535.01 967.856 1532.61 970.556 1529.52L970.647 1529.42L970.733 1529.31L1171.52 1277.28V1510.53C1171.52 1518.54 1174.32 1525.55 1179.91 1531.14C1185.51 1536.74 1192.51 1539.54 1200.53 1539.54C1208.72 1539.54 1215.81 1536.81 1221.21 1531.07C1226.76 1525.49 1229.53 1518.51 1229.53 1510.53V1211.01C1229.53 1202.85 1226.83 1195.78 1221.14 1190.39C1215.75 1184.7 1208.68 1182 1200.53 1182C1191.61 1182 1184.05 1185.64 1178.24 1192.54ZM1552.52 1192.54L1552.48 1192.6L1552.43 1192.66L1350.75 1444.76V1211.01C1350.75 1202.98 1348.28 1195.96 1342.95 1190.55C1337.8 1184.7 1330.77 1182 1322.63 1182C1314.65 1182 1307.61 1184.76 1301.79 1190.19C1295.7 1195.55 1292.74 1202.69 1292.74 1211.01V1510.53C1292.74 1518.67 1295.78 1525.71 1301.71 1531.28C1307.55 1536.75 1314.62 1539.54 1322.63 1539.54C1326.81 1539.54 1330.9 1538.58 1334.84 1536.79C1338.76 1535.01 1342.14 1532.61 1344.84 1529.52L1344.93 1529.42L1345.02 1529.31L1545.81 1277.28V1510.53C1545.81 1518.54 1548.6 1525.55 1554.2 1531.14C1559.79 1536.74 1566.8 1539.54 1574.81 1539.54C1583 1539.54 1590.1 1536.81 1595.5 1531.07C1601.04 1525.49 1603.82 1518.51 1603.82 1510.53V1211.01C1603.82 1202.85 1601.12 1195.78 1595.43 1190.39C1590.04 1184.7 1582.96 1182 1574.81 1182C1565.89 1182 1558.34 1185.64 1552.52 1192.54ZM1725.03 1510.53V1320.12L1819.37 1509.16C1819.38 1509.17 1819.38 1509.18 1819.39 1509.19C1821.98 1514.54 1825.52 1518.89 1830.15 1521.88C1834.8 1524.88 1840.17 1526.26 1846.01 1526.26C1856.54 1526.26 1864.96 1521.19 1870.94 1512.04L1871.14 1511.74L1871.31 1511.4L1966.99 1316.39V1510.53C1966.99 1518.54 1969.79 1525.55 1975.38 1531.14C1980.98 1536.74 1987.98 1539.54 1995.99 1539.54C2003.76 1539.54 2010.57 1536.7 2016.1 1531.21C2021.98 1525.66 2025 1518.64 2025 1510.53V1211.01C2025 1202.82 2022.27 1195.72 2016.53 1190.32C2010.95 1184.77 2003.97 1182 1995.99 1182C1984.8 1182 1976.12 1187.45 1970.43 1197.41L1970.33 1197.58L1970.25 1197.76L1847.62 1449.85L1721.75 1197.71L1721.67 1197.56L1721.59 1197.41C1715.9 1187.45 1707.22 1182 1696.03 1182C1688.05 1182 1681.07 1184.77 1675.49 1190.32C1669.75 1195.72 1667.02 1202.82 1667.02 1211.01V1510.53C1667.02 1518.54 1669.82 1525.55 1675.41 1531.14C1681.01 1536.74 1688.01 1539.54 1696.03 1539.54C1704.04 1539.54 1711.04 1536.74 1716.64 1531.14C1722.23 1525.55 1725.03 1518.54 1725.03 1510.53Z" fill="white" stroke="white" stroke-width="12"/>
</g>
<defs>
<clipPath id="clip0_144_19">
<rect width="2600" height="2600" fill="white"/>
</clipPath>
</defs>
</svg>
