<svg width="169" height="54" viewBox="0 0 169 54" fill="none" xmlns="http://www.w3.org/2000/svg">
<mask id="mask0_258_39093" style="mask-type:luminance" maskUnits="userSpaceOnUse" x="0" y="-1" width="169" height="55">
<path d="M167.958 0L0 0.794569L0.247489 53.1093L168.205 52.3147L167.958 0Z" fill="white"/>
</mask>
<g mask="url(#mask0_258_39093)">
<path d="M131.961 16.2844L137.909 11.7967L117.93 11.8912L118.056 38.6732L138.036 38.5787L138.014 34.1191L123.737 34.1866L123.705 27.331L135.882 27.2734L135.861 22.8139L123.684 22.8716L123.653 16.3237L131.961 16.2844Z" fill="white"/>
<path d="M102.898 22.3958L95.9594 22.4286L95.9311 16.4478L107.008 16.3954L112.956 11.9077L90.2083 12.0153L90.335 38.7973L102.24 38.741C108.917 38.7094 112.732 35.625 112.707 30.2774C112.683 25.1655 109.198 22.366 102.898 22.3958ZM101.962 34.2825L96.0156 34.3107L95.9805 26.8866L101.926 26.8585C105.546 26.8414 107.237 28.0749 107.249 30.5447C107.259 33.0691 105.481 34.2659 101.962 34.2825Z" fill="white"/>
<path d="M154.09 11.7197L143.212 11.7711L143.339 38.5531L149.041 38.5261L149.005 30.9399L154.181 30.9154C161.122 30.8826 165.417 27.1627 165.389 21.2512C165.361 15.3395 161.032 11.6868 154.09 11.7197ZM154.037 26.4566L148.984 26.4805L148.935 16.2036L153.989 16.1797C157.642 16.1624 159.663 17.9777 159.678 21.2912C159.694 24.605 157.692 26.4393 154.037 26.4566Z" fill="white"/>
<path d="M80.5171 33.0572C79.0592 33.8816 77.3582 34.3227 75.6015 34.331C70.4606 34.3553 66.7132 30.6542 66.6889 25.5306C66.6647 20.4068 70.3785 16.6705 75.5178 16.6461C77.462 16.6369 79.2083 17.1825 80.7116 18.2667L84.7859 15.1928L84.5145 14.9541C82.1171 12.8387 78.921 11.7301 75.2737 11.7473C71.3172 11.7661 67.7316 13.1351 65.1801 15.6037C62.6127 18.0857 61.2095 21.5682 61.2276 25.4091C61.2459 29.2677 62.6779 32.7882 65.2589 35.321C67.8486 37.8626 71.4384 39.2521 75.3674 39.2335C79.4781 39.2141 83.0603 37.7449 85.4802 35.0897C83.5962 33.6966 81.7778 32.3518 81.7778 32.3518L80.5171 33.0572Z" fill="white"/>
<path d="M43.3836 13.6377C44.4276 14.9906 45.3209 16.4695 46.036 18.0494L26.1 33.088L17.7169 27.8168L17.6867 21.428L26.0697 26.6992L43.3836 13.6377Z" fill="white"/>
<path d="M9.18182 27.3981C9.18047 27.111 9.18639 26.8266 9.19957 26.5424L4.13308 26.3101C4.11739 26.6784 4.10897 27.0494 4.11073 27.4221C4.1398 33.5679 6.62321 39.1203 10.6163 43.1281L14.191 39.4704C11.1177 36.3863 9.20415 32.1169 9.18182 27.3981Z" fill="white"/>
<path d="M25.9856 10.2092C26.269 10.2078 26.5493 10.2168 26.8298 10.2287L27.0584 5.0906C26.6951 5.07465 26.3288 5.06606 25.9613 5.0678C19.8976 5.09649 14.4199 7.61288 10.4664 11.6596L14.0755 15.2833C17.118 12.1702 21.3314 10.2312 25.9856 10.2092Z" fill="white"/>
<path d="M26.1522 44.4238C25.8688 44.4251 25.5883 44.419 25.3078 44.4057L25.0792 49.5408C25.4425 49.5567 25.8088 49.5655 26.1765 49.5637C32.24 49.535 37.7177 47.0185 41.6712 42.9719L38.0622 39.3482C35.0197 42.4613 30.8075 44.4018 26.1522 44.4238Z" fill="white"/>
<path d="M35.5259 13.1482L39.7813 9.93797C35.9976 6.86893 31.1922 5.04037 25.9688 5.06508L25.9931 10.2064C29.5223 10.1898 32.8057 11.2773 35.5259 13.1482Z" fill="white"/>
<path d="M48.0266 27.1978C48.0201 25.8371 47.8931 24.5048 47.6562 23.2127L42.946 26.7653C42.951 26.917 42.9533 27.0687 42.954 27.2218C42.9778 32.2469 40.8517 36.7827 37.4519 39.9329L40.8772 43.7341C45.2971 39.6424 48.0575 33.7442 48.0266 27.1978Z" fill="white"/>
<path d="M26.1537 44.4275C21.1958 44.451 16.7204 42.2954 13.612 38.849L9.86204 42.3204C13.901 46.7993 19.7207 49.598 26.178 49.5675L26.1537 44.4275Z" fill="white"/>
<path d="M14.6787 14.6827L11.2533 10.8815C6.83498 14.9746 4.07445 20.8729 4.10541 27.4178L9.17795 27.3938C9.15273 22.3688 11.2789 17.8329 14.6787 14.6827Z" fill="white"/>
</g>
</svg>
